<mxfile host="app.diagrams.net" modified="2023-04-20T13:21:12.142Z" agent="Mozilla/5.0 (Windows NT 10.0; Win64; x64) AppleWebKit/537.36 (KHTML, like Gecko) Chrome/111.0.0.0 Safari/537.36" version="21.1.2" etag="zFE_zR4xmgD-FE0ft5M4" type="github">
  <diagram name="PÃ¡gina-1" id="AKogJuHXAMV5DzB095S-">
    <mxGraphModel>
      <root>
        <mxCell id="0" />
        <mxCell id="1" parent="0" />
      </root>
    </mxGraphModel>
  </diagram>
</mxfile>
